<svg width="1107" height="451" viewBox="0 0 1107 451" fill="none" xmlns="http://www.w3.org/2000/svg">
<path d="M0 450.24V8.71243H64.0794V54.1088H74.6574C82.5387 40.0049 94.7708 27.3599 111.354 16.1741C127.533 5.39124 150.969 0 181.66 0C207.779 0 231.839 6.4196 253.815 19.2729C275.792 31.7093 293.222 50.1624 306.066 74.6322C319.758 98.2545 326.596 127.074 326.596 161.062V170.4C326.596 204.388 319.966 233.416 306.691 257.455C293.834 281.508 276.209 299.947 253.815 312.8C231.839 325.237 207.779 331.462 181.66 331.462C161.338 331.462 144.116 328.975 130.021 324C115.927 319.025 104.515 312.592 95.8132 304.727C87.5149 296.848 80.8707 288.553 75.8944 279.84H65.3304V450.24H0ZM162.367 274.254C191.404 274.254 215.034 265.125 233.285 246.88C251.536 228.649 260.654 202.526 260.654 168.524V162.938C260.654 129.353 251.327 103.438 232.66 85.1929C214.423 66.9621 190.987 57.8329 162.367 57.8329C134.164 57.8329 110.95 66.9621 92.6996 85.1929C74.0318 103.438 64.7049 129.353 64.7049 162.938V168.524C64.7049 202.526 74.0318 228.649 92.6996 246.88C110.95 265.125 134.164 274.254 162.367 274.254Z" fill="black"/>
<path d="M363.501 322.75V8.71271H427.58V46.0219H438.158C443.134 32.7518 451.224 23.011 462.414 16.7859C473.617 10.5746 487.504 7.46196 504.1 7.46196H542.047V66.5454H501.612C480.456 66.5454 463.039 72.5483 449.348 84.5817C435.67 96.1844 428.817 114.012 428.817 138.051V322.75H363.501Z" fill="black"/>
<path d="M552.195 322.75V242.531C583.303 214.337 645.089 157.964 737.58 73.3821V64.0583H559.033V8.71278H809.11V89.5564C778.015 117.736 716.007 174.332 623.113 259.331V267.404H814.1V322.75H552.195Z" fill="black"/>
<path d="M942.298 294.871V191.64H840.277V131.316H942.298V28.7072H1005.13V131.316H1106.53V191.64H1005.13V294.871H942.298Z" fill="#BFC0C0"/>
</svg>
